<?xml version="1.0" encoding="UTF-8" standalone="no"?>
<!--Generator: Xara Designer (www.xara.com), SVG filter version: 6.1.0.18-->

<svg
   xmlns:dc="http://purl.org/dc/elements/1.1/"
   xmlns:cc="http://creativecommons.org/ns#"
   xmlns:rdf="http://www.w3.org/1999/02/22-rdf-syntax-ns#"
   xmlns:svg="http://www.w3.org/2000/svg"
   xmlns="http://www.w3.org/2000/svg"
   xmlns:sodipodi="http://sodipodi.sourceforge.net/DTD/sodipodi-0.dtd"
   xmlns:inkscape="http://www.inkscape.org/namespaces/inkscape"
   version="1.1"
   overflow="visible"
   width="100.20263pt"
   height="20.702059pt"
   viewBox="0 0 100.20263 20.702059"
   id="svg31"
   sodipodi:docname="logo_text.svg"
   style="overflow:visible;fill-rule:evenodd;stroke-width:0.50099999;stroke-linejoin:bevel"
   inkscape:version="0.92.3 (2405546, 2018-03-11)">
  <metadata
     id="metadata35">
    <rdf:RDF>
      <cc:Work
         rdf:about="">
        <dc:format>image/svg+xml</dc:format>
        <dc:type
           rdf:resource="http://purl.org/dc/dcmitype/StillImage" />
        <dc:title></dc:title>
      </cc:Work>
    </rdf:RDF>
  </metadata>
  <sodipodi:namedview
     pagecolor="#ffffff"
     bordercolor="#666666"
     borderopacity="1"
     objecttolerance="10"
     gridtolerance="10"
     guidetolerance="10"
     inkscape:pageopacity="0"
     inkscape:pageshadow="2"
     inkscape:window-width="716"
     inkscape:window-height="480"
     id="namedview33"
     showgrid="false"
     fit-margin-top="0"
     fit-margin-left="0"
     fit-margin-right="0"
     fit-margin-bottom="0"
     inkscape:zoom="1.888"
     inkscape:cx="20.703658"
     inkscape:cy="-0.50979813"
     inkscape:window-x="555"
     inkscape:window-y="356"
     inkscape:window-maximized="0"
     inkscape:current-layer="MouseOff" />
  <defs
     id="defs2" />
  <g
     id="Document"
     font-size="16"
     transform="matrix(1,0,0,-1,-346.89704,-235.09361)"
     style="font-size:16px;font-family:'Times New Roman';fill:none;stroke:#000000">
    <g
       id="Spread"
       transform="translate(0,-750)">
      <g
         id="Page background">
        <path
           d="M 0,749.999 V 0 h 569.999 v 749.999 z"
           stroke-miterlimit="79.8403193612775"
           id="path4"
           inkscape:connector-curvature="0"
           style="stroke:none;stroke-width:0;stroke-linejoin:bevel;stroke-miterlimit:79.84031677;marker-start:none;marker-end:none" />
      </g>
      <g
         id="MouseOff">
        <g
           aria-label="Marozed"
           transform="matrix(1,0,0,-1,344.674,494.51)"
           style="font-size:27.78800011px;font-family:Biko;fill:#ffffff;stroke:none;stroke-width:0.141;stroke-linecap:round;stroke-linejoin:round;stroke-miterlimit:79.84031677"
           id="text21">
          <path
             d="m 19.923996,0 v -19.785056 h -3.501288 l -5.363084,7.36382 -5.363084,-7.36382 H 2.22304 V 0 h 3.695804 v -13.227088 l 5.14078,7.058152 5.168568,-7.058152 V 0 Z"
             id="path842"
             inkscape:connector-curvature="0" />
          <path
             d="m 29.654337,0.250092 c 1.000368,0 2.139676,-0.13894 3.140044,-1.11152 l 0.13894,-0.13894 V 0 h 3.362348 v -12.726904 h -3.362348 v 1.11152 l -0.13894,-0.111152 c -0.917004,-0.83364 -1.972948,-1.25046 -3.140044,-1.25046 -1.778432,0 -3.445712,0.666912 -4.696172,1.917372 -1.25046,1.278248 -1.94516,2.945528 -1.94516,4.696172 0,1.750644 0.6947,3.417924 1.94516,4.696172 1.278248,1.25046 2.945528,1.917372 4.696172,1.917372 z m 0,-9.975892 c 1.778432,0 3.278984,1.556128 3.278984,3.362348 0,1.834008 -1.500552,3.362348 -3.278984,3.362348 -1.778432,0 -3.278984,-1.52834 -3.278984,-3.362348 0,-1.80622 1.500552,-3.362348 3.278984,-3.362348 z"
             id="path844"
             inkscape:connector-curvature="0" />
          <path
             d="m 43.301508,0 v -6.752484 c 0,-1.52834 1.333824,-2.806588 2.973316,-2.806588 h 0.527972 l 0.83364,-3.4735 h -0.83364 c -1.000368,0 -2.50092,0.333456 -3.501288,1.333824 v -1.028156 H 39.800219 V 0 Z"
             id="path846"
             inkscape:connector-curvature="0" />
          <path
             d="m 55.083126,0.305668 c 1.778432,0 3.445712,-0.6947 4.696172,-1.94516 1.278248,-1.278248 1.972948,-2.945528 1.972948,-4.72396 0,-1.778432 -0.6947,-3.445712 -1.972948,-4.72396 -1.194884,-1.222672 -2.862164,-1.917372 -4.696172,-1.917372 -1.778432,0 -3.445712,0.6947 -4.72396,1.917372 -1.25046,1.278248 -1.94516,2.973316 -1.94516,4.72396 0,1.722856 0.6947,3.417924 1.94516,4.72396 1.306036,1.25046 3.001104,1.94516 4.72396,1.94516 z m 0,-10.14262 c 1.889584,0 3.417924,1.556128 3.417924,3.4735 0,1.917372 -1.52834,3.4735 -3.417924,3.4735 -1.861796,0 -3.390136,-1.556128 -3.390136,-3.4735 0,-1.917372 1.52834,-3.4735 3.390136,-3.4735 z"
             id="path848"
             inkscape:connector-curvature="0" />
          <path
             d="m 73.309684,0 v -3.001104 h -5.83548 l 5.807692,-6.80806 v -2.91774 H 63.22264 v 2.91774 h 5.97442 L 63.250428,-2.91774 V 0 Z"
             id="path850"
             inkscape:connector-curvature="0" />
          <path
             d="m 81.423514,0.305668 c 1.222672,-0.027788 2.306404,-0.333456 3.306772,-0.917004 h 0.02779 c 0.41682,-0.222304 0.805852,-0.55576 1.11152,-0.83364 l 0.41682,-0.361244 -2.306404,-2.000736 -0.305668,0.250092 c -0.527972,0.444608 -1.417188,0.944792 -2.22304,1.000368 h -0.02779 c -1.444976,0 -2.751012,-1.25046 -3.112256,-2.973316 l -0.02779,-0.194516 h 9.336768 c 0,-0.194516 0,-0.41682 0,-0.639124 0,-0.639124 -0.05558,-1.194884 -0.194516,-1.722856 -0.27788,-1.139308 -0.83364,-2.139676 -1.556128,-2.91774 -0.500184,-0.583548 -1.167096,-1.083732 -2.000736,-1.472764 -0.750276,-0.361244 -1.556128,-0.527972 -2.445344,-0.527972 -0.861428,0 -1.695068,0.166728 -2.445344,0.527972 -0.805852,0.389032 -1.444976,0.861428 -2.000736,1.472764 -0.750276,0.778064 -1.278248,1.80622 -1.52834,2.91774 -0.13894,0.583548 -0.222304,1.167096 -0.222304,1.722856 0,0.27788 0.02779,0.527972 0.05558,0.778064 0.13894,1.444976 0.722488,2.834376 1.695068,3.89032 0.611336,0.639124 1.278248,1.139308 2.000736,1.444976 0.778064,0.361244 1.611704,0.55576 2.417556,0.55576 z m 0,-10.4205 c 1.083732,0 2.139676,0.722488 2.7788,1.917372 l 0.111152,0.222304 H 78.56135 l 0.111152,-0.222304 c 0.583548,-1.167096 1.66728,-1.917372 2.751012,-1.917372 z"
             id="path852"
             inkscape:connector-curvature="0" />
          <path
             d="m 95.784334,0.250092 c 1.000368,0 2.139676,-0.13894 3.140044,-1.11152 l 0.13894,-0.13894 V 0 h 3.362352 v -20.396392 h -3.362352 v 8.781008 l -0.13894,-0.111152 c -0.917004,-0.83364 -1.972948,-1.25046 -3.140044,-1.25046 -1.778432,0 -3.445712,0.666912 -4.696172,1.917372 -1.25046,1.278248 -1.94516,2.945528 -1.94516,4.696172 0,1.750644 0.6947,3.417924 1.94516,4.696172 1.278248,1.25046 2.945528,1.917372 4.696172,1.917372 z m 0,-9.975892 c 1.778432,0 3.278984,1.556128 3.278984,3.362348 0,1.834008 -1.500552,3.362348 -3.278984,3.362348 -1.778432,0 -3.278984,-1.52834 -3.278984,-3.362348 0,-1.80622 1.500552,-3.362348 3.278984,-3.362348 z"
             id="path854"
             inkscape:connector-curvature="0" />
        </g>
      </g>
    </g>
  </g>
</svg>
